<svg data-v-fde0c5aa="" xmlns="http://www.w3.org/2000/svg" viewBox="0 0 300 300" class="icon"><!----><defs data-v-fde0c5aa=""><!----></defs><rect data-v-fde0c5aa="" fill="#DF8E40" x="0" y="0" width="300px" height="300px" class="logo-background-square"></rect><!----><defs data-v-fde0c5aa=""><!----></defs><g data-v-fde0c5aa="" id="29ec3c97-e4e1-4d19-b108-73efb9672db6" fill="#2A1A0A" stroke="none" transform="matrix(2.4485245299177887,0,0,2.4485245299177887,27.7387596383167,27.573766498825687)"><path d="M90.693 27.262c-3.917-5.184-9.89-8.158-16.388-8.158h-4.312c-.164-2.075-.357-4.15-.609-6.22-.3-2.458-2.374-4.317-4.851-4.317h-36.43v20.765l4.838 3.757a2.814 2.814 0 0 1 1.088 2.222v11.875A2.814 2.814 0 0 1 31.215 50H20.621a2.814 2.814 0 0 1-2.814-2.814V35.312c0-.869.401-1.689 1.088-2.222l4.837-3.757V8.567H10.936c-2.477 0-4.551 1.858-4.851 4.317a145.963 145.963 0 0 0 7.022 65.648l3.063 8.795a6.118 6.118 0 0 0 5.777 4.106H53.52a6.117 6.117 0 0 0 5.777-4.106l3.063-8.795a144.947 144.947 0 0 0 3.083-10.057c13.052-.216 24.594-9.04 28.168-21.631l.451-1.588c1.776-6.251.547-12.81-3.369-17.994zm-7.136 15.009l-.451 1.589c-2.013 7.088-8.012 12.297-15.125 13.463a146.094 146.094 0 0 0 2.471-27.297h3.853a9.542 9.542 0 0 1 7.674 3.82 9.546 9.546 0 0 1 1.578 8.425z"></path></g><!----></svg>