<svg data-v-423bf9ae="" xmlns="http://www.w3.org/2000/svg" viewBox="0 0 654 90" class="iconLeft"><!----><!----><!----><g data-v-423bf9ae="" id="b983819a-69ec-48a3-96dc-b406180d5359" fill="black" transform="matrix(5.016722792052415,0,0,5.016722792052415,114.22407308646558,-3.110370425951132)"><path d="M0.67 12.47C0.67 14.63 1.54 15.57 3.18 15.57C4.07 15.57 4.73 15.33 5.19 14.80L5.33 15.40L7.69 15.40L7.69 6.85L4.97 6.85L4.97 12.14C4.97 12.92 4.72 13.19 4.17 13.19C3.60 13.19 3.39 12.91 3.39 12.17L3.39 6.85L0.67 6.85ZM16.16 9.77C16.16 7.62 15.26 6.68 13.62 6.68C12.73 6.68 12.04 6.92 11.58 7.45L11.44 6.85L9.09 6.85L9.09 15.40L11.80 15.40L11.80 10.11C11.80 9.32 12.08 9.06 12.63 9.06C13.20 9.06 13.44 9.34 13.44 10.08L13.44 15.40L16.16 15.40ZM20.10 15.57C20.97 15.57 21.62 15.33 22.08 14.81L22.22 15.40L24.58 15.40L24.58 4.59L21.87 4.59L21.87 7.11C21.49 6.83 20.99 6.68 20.30 6.68C18.72 6.68 17.39 7.80 17.39 9.98L17.39 12.12C17.39 14.39 18.40 15.57 20.10 15.57ZM21.85 12.17C21.85 12.95 21.60 13.19 20.99 13.19C20.37 13.19 20.12 12.95 20.12 12.17L20.12 10.08C20.12 9.34 20.41 9.06 20.99 9.06C21.53 9.06 21.85 9.32 21.85 10.07ZM28.70 6.85L25.98 6.85L25.98 15.40L28.70 15.40ZM28.70 3.61L25.98 3.61L25.98 6.02L28.70 6.02ZM33.80 10.02C32.73 9.88 32.63 9.62 32.63 9.28C32.63 8.90 32.90 8.67 33.38 8.67C33.99 8.67 34.26 9.03 34.26 9.59L36.75 9.59C36.75 7.71 35.69 6.68 33.46 6.68C31.49 6.68 30.04 7.56 30.04 9.39C30.04 11.20 31.11 11.89 33.18 12.12C34.16 12.24 34.22 12.52 34.22 12.92C34.22 13.31 33.94 13.58 33.46 13.58C32.82 13.58 32.49 13.30 32.45 12.66L29.86 12.66C29.86 14.38 30.93 15.57 33.28 15.57C35.43 15.57 36.88 14.63 36.88 12.74C36.88 10.88 35.43 10.23 33.80 10.02ZM41.62 13.10C40.95 13.10 40.74 12.82 40.74 12.00L40.74 9.77L42.14 9.77L42.14 7.41L40.74 7.41L40.74 5.47L37.95 5.47L37.95 11.90C37.95 14.36 38.67 15.57 40.94 15.57C41.44 15.57 41.94 15.51 42.13 15.47L42.13 13.06C42.00 13.09 41.79 13.10 41.62 13.10ZM43.47 6.85L43.47 15.40L46.19 15.40L46.19 11.17C46.19 9.83 46.91 9.49 47.66 9.49C47.88 9.49 48.10 9.52 48.31 9.56L48.31 6.75C48.19 6.73 48.06 6.72 47.94 6.72C47.15 6.72 46.40 7.08 46.00 7.66L45.82 6.85ZM53.58 15.40L55.97 15.40L55.97 9.77C55.97 7.42 54.61 6.68 52.65 6.68C50.40 6.68 49.18 7.48 49.18 9.80L51.63 9.80C51.63 9.09 51.90 8.78 52.53 8.78C53.07 8.78 53.38 9.07 53.38 9.81L53.38 10.47C53.02 10.44 52.70 10.42 52.36 10.42C49.94 10.42 48.94 11.31 48.94 13.09C48.94 14.64 50.01 15.57 51.48 15.57C52.40 15.57 53.06 15.27 53.44 14.76ZM53.38 12.54C53.38 13.20 52.91 13.52 52.40 13.52C51.90 13.52 51.62 13.30 51.62 12.80C51.62 12.28 51.91 12.01 52.65 12.01C52.84 12.01 53.20 12.03 53.38 12.05ZM61.81 12.01L61.81 12.21C61.81 12.99 61.46 13.19 60.84 13.19C60.23 13.19 59.89 12.95 59.89 12.17L59.89 10.08C59.89 9.30 60.23 9.06 60.84 9.06C61.46 9.06 61.81 9.25 61.81 10.04L61.81 10.25L64.44 10.25L64.44 10.01C64.44 7.74 63.24 6.68 60.80 6.68C58.37 6.68 57.16 7.85 57.16 10.12L57.16 12.12C57.16 14.39 58.35 15.57 60.79 15.57C63.29 15.57 64.44 14.43 64.44 12.17L64.44 12.01ZM69.23 13.10C68.56 13.10 68.35 12.82 68.35 12.00L68.35 9.77L69.75 9.77L69.75 7.41L68.35 7.41L68.35 5.47L65.56 5.47L65.56 11.90C65.56 14.36 66.28 15.57 68.54 15.57C69.05 15.57 69.55 15.51 69.73 15.47L69.73 13.06C69.61 13.09 69.40 13.10 69.23 13.10ZM75.52 12.60C75.45 13.15 75.25 13.52 74.51 13.52C73.89 13.52 73.58 13.12 73.58 12.42L73.58 11.82L78.08 11.82L78.08 10.02C78.08 7.71 76.87 6.68 74.52 6.68C72.09 6.68 70.91 8.02 70.91 9.98L70.91 12.08C70.91 14.49 72.09 15.57 74.52 15.57C77.01 15.57 77.92 14.50 78.01 12.60ZM74.55 8.68C75.17 8.68 75.52 8.97 75.52 9.74L75.52 10.11L73.58 10.11L73.58 9.79C73.58 8.99 73.89 8.68 74.55 8.68ZM81.84 15.57C82.71 15.57 83.36 15.33 83.82 14.81L83.96 15.40L86.32 15.40L86.32 4.59L83.61 4.59L83.61 7.11C83.23 6.83 82.73 6.68 82.04 6.68C80.46 6.68 79.13 7.80 79.13 9.98L79.13 12.12C79.13 14.39 80.14 15.57 81.84 15.57ZM83.59 12.17C83.59 12.95 83.34 13.19 82.73 13.19C82.11 13.19 81.86 12.95 81.86 12.17L81.86 10.08C81.86 9.34 82.15 9.06 82.73 9.06C83.27 9.06 83.59 9.32 83.59 10.07ZM92.30 6.68C91.43 6.68 90.71 6.89 90.22 7.45L90.08 6.85L87.72 6.85L87.72 15.40L90.44 15.40L90.44 10.07C90.44 9.32 90.72 9.06 91.27 9.06C91.84 9.06 92.08 9.34 92.08 10.08L92.08 15.40L94.79 15.40L94.79 10.07C94.79 9.32 95.07 9.06 95.62 9.06C96.19 9.06 96.43 9.34 96.43 10.08L96.43 15.40L99.15 15.40L99.15 9.77C99.15 7.52 98.27 6.68 96.39 6.68C95.38 6.68 94.61 7.01 94.14 7.59C93.72 6.94 93.06 6.68 92.30 6.68ZM104.94 12.60C104.87 13.15 104.68 13.52 103.94 13.52C103.32 13.52 103.01 13.12 103.01 12.42L103.01 11.82L107.51 11.82L107.51 10.02C107.51 7.71 106.30 6.68 103.95 6.68C101.51 6.68 100.34 8.02 100.34 9.98L100.34 12.08C100.34 14.49 101.51 15.57 103.95 15.57C106.44 15.57 107.35 14.50 107.44 12.60ZM103.98 8.68C104.59 8.68 104.94 8.97 104.94 9.74L104.94 10.11L103.01 10.11L103.01 9.79C103.01 8.99 103.32 8.68 103.98 8.68Z"></path></g><!----><g data-v-423bf9ae="" id="33576e73-28ac-4e32-80a0-a442ed70883c" transform="matrix(1.0860907323936582,0,0,1.0860907323936582,-5.223750161956168,-8.7375393379143)" stroke="none" fill="black"><path d="M90.693 27.262c-3.917-5.184-9.89-8.158-16.388-8.158h-4.312c-.164-2.075-.357-4.15-.609-6.22-.3-2.458-2.374-4.317-4.851-4.317h-36.43v20.765l4.838 3.757a2.814 2.814 0 0 1 1.088 2.222v11.875A2.814 2.814 0 0 1 31.215 50H20.621a2.814 2.814 0 0 1-2.814-2.814V35.312c0-.869.401-1.689 1.088-2.222l4.837-3.757V8.567H10.936c-2.477 0-4.551 1.858-4.851 4.317a145.963 145.963 0 0 0 7.022 65.648l3.063 8.795a6.118 6.118 0 0 0 5.777 4.106H53.52a6.117 6.117 0 0 0 5.777-4.106l3.063-8.795a144.947 144.947 0 0 0 3.083-10.057c13.052-.216 24.594-9.04 28.168-21.631l.451-1.588c1.776-6.251.547-12.81-3.369-17.994zm-7.136 15.009l-.451 1.589c-2.013 7.088-8.012 12.297-15.125 13.463a146.094 146.094 0 0 0 2.471-27.297h3.853a9.542 9.542 0 0 1 7.674 3.82 9.546 9.546 0 0 1 1.578 8.425z"></path></g><!----></svg>